<?xml version="1.0" encoding="UTF-8" standalone="no"?>
<!-- Created with Inkscape (http://www.inkscape.org/) -->

<svg
   xmlns:dc="http://purl.org/dc/elements/1.1/"
   xmlns:cc="http://creativecommons.org/ns#"
   xmlns:rdf="http://www.w3.org/1999/02/22-rdf-syntax-ns#"
   xmlns:svg="http://www.w3.org/2000/svg"
   xmlns="http://www.w3.org/2000/svg"
   xmlns:sodipodi="http://sodipodi.sourceforge.net/DTD/sodipodi-0.dtd"
   xmlns:inkscape="http://www.inkscape.org/namespaces/inkscape"
   version="1.1"
   id="svg2"
   width="200"
   height="200"
   viewBox="0 0 200 200"
   sodipodi:docname="logo1.svg"
   inkscape:version="0.92.4 5da689c313, 2019-01-14">
  <metadata
     id="metadata8">
    <rdf:RDF>
      <cc:Work
         rdf:about="">
        <dc:format>image/svg+xml</dc:format>
        <dc:type
           rdf:resource="http://purl.org/dc/dcmitype/StillImage" />
        <dc:title />
      </cc:Work>
    </rdf:RDF>
  </metadata>
  <defs
     id="defs6" />
  <sodipodi:namedview
     pagecolor="#ffffff"
     bordercolor="#666666"
     borderopacity="1"
     objecttolerance="10"
     gridtolerance="10"
     guidetolerance="10"
     inkscape:pageopacity="0"
     inkscape:pageshadow="2"
     inkscape:window-width="1600"
     inkscape:window-height="876"
     id="namedview4"
     showgrid="true"
     showguides="false"
     inkscape:zoom="2.4031854"
     inkscape:cx="223.39851"
     inkscape:cy="77.218002"
     inkscape:window-x="0"
     inkscape:window-y="24"
     inkscape:window-maximized="1"
     inkscape:current-layer="g79">
    <inkscape:grid
       type="xygrid"
       id="grid514" />
  </sodipodi:namedview>
  <g
     id="g262"
     transform="translate(-50.903053,2.0596611)">
    <g
       transform="matrix(0.26687228,0,0,0.26687228,269.858,18.211319)"
       id="g15">
      <g
         id="g83"
         transform="translate(1350.6423,-235.31766)" />
    </g>
    <g
       id="g97"
       transform="matrix(0.9077954,0,0,0.9077954,18.676352,1.8343592)">
      <path
         id="path43"
         style="fill:#008000;stroke-width:2.97169638"
         d="m -411.24527,441.28712 c 0.002,-1.22583 6.72032,-6.00158 14.93037,-10.61279 27.16365,-15.25654 58.22061,-42.64358 84.25977,-74.30299 14.13351,-17.18408 32.50656,-37.36588 40.82897,-44.84844 14.78547,-13.29341 49.46023,-32.34641 65.76783,-36.13797 7.04396,-1.63776 8.17217,-0.98324 8.17217,4.74081 0,3.65248 -4.13744,14.82987 -9.19428,24.83866 -24.12747,47.75437 -65.31824,84.95073 -125.65355,113.46859 -34.62376,16.36513 -79.11992,29.21944 -79.11128,22.85413 z m -23.7766,-5.55467 c 0,-1.01201 4.73374,-9.63257 10.51939,-19.1568 26.67799,-43.91674 41.50672,-85.09453 51.83218,-143.93231 7.88204,-44.91438 15.69745,-69.86315 28.39269,-90.63674 12.46522,-20.39717 36.17133,-47.54714 41.51599,-47.54714 6.83558,0 11.19711,30.85993 9.64538,68.2457 -1.1003,26.5089 -3.27784,40.00276 -9.60773,59.53724 -19.11977,59.00503 -55.48005,112.55021 -106.4387,156.74472 -20.07946,17.41411 -25.8592,21.15684 -25.8592,16.74533 z m -16.29476,-22.0011 c 3.62814,-21.1164 2.3121,-70.84249 -2.47566,-93.54087 -2.41326,-11.44103 -10.03536,-33.50588 -16.93802,-49.03299 -36.13835,-81.29107 -40.30179,-96.46114 -37.51695,-136.69803 1.55955,-22.53324 11.43078,-69.950597 15.38542,-73.905237 2.36791,-2.36789 30.16703,25.81995 46.42678,47.075967 57.11081,74.65959 61.39186,160.32845 14.06142,281.38422 -6.49512,16.61238 -13.92873,31.9633 -16.51916,34.11315 -4.22709,3.50817 -4.47552,2.54505 -2.42383,-9.39621 z"
         inkscape:connector-curvature="0"
         transform="matrix(0.26687228,0,0,0.26687228,269.858,18.211319)" />
      <path
         id="path18"
         style="fill:#280b0b;stroke-width:2.97169638"
         d="m -472.26552,404.14091 c -13.40021,-41.54137 -41.85574,-76.68971 -98.36071,-121.49538 -36.26197,-28.75398 -59.3158,-52.32408 -71.48008,-73.08087 -9.89085,-16.87745 -21.73618,-49.14896 -21.73618,-59.2182 0,-6.82043 0.85389,-7.40375 8.17217,-5.58278 4.49469,1.1184 19.0292,7.11211 32.29886,13.31936 88.12833,41.2244 142.25332,114.90228 157.29034,214.11213 4.95129,32.66703 5.44611,47.54715 1.58112,47.54715 -1.50308,0 -4.99756,-7.02063 -7.76552,-15.60141 z m -25.00085,8.58511 c -25.48904,-21.75704 -52.44226,-33.35028 -111.59973,-48.00178 -62.58931,-15.50147 -89.05298,-27.27581 -113.74379,-50.60737 -21.03483,-19.87685 -19.11811,-22.04833 19.51771,-22.11198 67.94787,-0.11203 128.21818,24.58785 177.54513,72.76104 23.06126,22.52187 48.67068,56.2177 45.29332,59.59506 -0.85656,0.85656 -8.51225,-4.37918 -17.01264,-11.63497 z m -108.62804,36.58937 c -38.13768,-3.23499 -79.60859,-12.42062 -108.43943,-24.01885 -41.83022,-16.82774 -36.5918,-19.64508 41.57626,-22.36068 69.78845,-2.42449 112.06178,3.21802 160.5757,21.43312 25.21446,9.46705 34.99809,16.07415 28.87571,19.50036 -4.2371,2.37121 -77.51197,8.99854 -89.89958,8.13095 -3.26886,-0.22882 -17.97876,-1.43714 -32.68866,-2.6849 z"
         inkscape:connector-curvature="0"
         transform="matrix(0.26687228,0,0,0.26687228,269.858,18.211319)" />
      <g
         transform="matrix(0.65397133,0,0,0.65397133,-80.376699,-17.032484)"
         id="g79">
        <path
           inkscape:connector-curvature="0"
           style="fill:#008000;stroke-width:0.33780316"
           d="m 374.78355,313.42784 c -5.15278,-0.58636 -8.98998,-2.00476 -12.28719,-4.5419 -10.79192,-8.30419 -16.49294,-20.94253 -17.15745,-38.03565 -0.22116,-5.6886 0.2675,-13.56597 1.18394,-19.08588 l 0.56084,-3.37803 h 2.15578 2.15578 l -0.0568,8.27618 c -0.10017,14.59224 1.49681,23.9013 5.55374,32.37359 2.77292,5.79084 5.71118,9.20338 10.16042,11.80043 4.23243,2.47051 6.26966,2.95104 12.46019,2.93904 6.24808,-0.0122 9.07616,-0.59281 17.08241,-3.50772 19.89242,-7.24244 40.23615,-19.8766 58.65017,-36.42378 1.70769,-1.53457 3.1898,-2.79012 3.29358,-2.79012 0.49801,0 0.0186,1.05072 -1.91057,4.18737 -7.669,12.46906 -16.97676,22.3233 -29.17272,30.8855 -4.4355,3.11395 -7.12135,4.68483 -12.47354,7.29545 -15.15802,7.39353 -30.21581,11.14145 -40.19857,10.00552 z"
           id="path56" />
        <g
           id="g67">
          <path
             inkscape:connector-curvature="0"
             id="path58"
             d="m 337.963,342.91512 c -30.16048,-1.84383 -59.39821,-12.02495 -83.60629,-29.11323 -31.11281,-21.96229 -53.07316,-54.68948 -61.28325,-91.32957 -2.2241,-9.9257 -3.27708,-20.14161 -3.26551,-31.68138 0.0177,-17.62015 2.8221,-33.75139 8.67453,-49.89661 3.81819,-10.53335 9.14133,-21.17765 15.08418,-30.16274 4.61731,-6.98098 5.23366,-7.24772 2.3093,-0.99941 -6.68101,14.27492 -10.50971,27.75768 -12.69162,44.69341 -1.18279,9.18068 -1.25377,23.06155 -0.16783,32.81842 0.53162,4.77645 2.22896,14.57367 3.23537,18.67492 1.28632,5.24189 3.58363,12.59649 5.35147,17.13221 0.86897,2.2295 1.72026,4.51086 1.89175,5.06968 0.57215,1.8644 7.32293,15.15066 9.52461,18.74544 3.99217,6.51821 4.46829,7.24992 7.14552,10.98149 6.36659,8.87385 11.89334,15.11634 20.64455,23.31811 18.81563,17.63431 42.29898,30.4345 67.7925,36.95197 10.20905,2.60997 19.2284,4.02702 30.50822,4.79326 12.58183,0.85464 29.68874,-0.34044 41.55045,-2.90271 26.93513,-5.81832 50.27141,-17.28339 70.75187,-34.76028 4.64773,-3.96611 11.8928,-11.24454 15.84497,-15.91793 1.72831,-2.04371 3.448,-3.93338 3.82154,-4.19927 0.66537,-0.47366 0.66922,-0.45971 0.1894,0.68862 -0.96523,2.31013 -7.30456,11.96417 -10.84528,16.51608 -7.72453,9.93055 -18.36547,20.56028 -28.13383,28.1042 -27.25355,21.0474 -62.55412,32.95746 -96.72605,32.63446 -3.25135,-0.0307 -6.67161,-0.10232 -7.60057,-0.15914 z"
             style="fill:#008000;stroke-width:0.33780316" />
          <g
             id="g61">
            <g
               id="g70">
              <path
                 inkscape:connector-curvature="0"
                 id="path54"
                 d="m 411.43519,311.74423 c 0,-0.1717 1.3301,-1.11009 2.95578,-2.08529 16.05512,-9.63093 30.37787,-22.98148 41.29644,-38.49334 4.47321,-6.35503 5.51964,-8.04454 8.98275,-14.50304 7.60071,-14.17492 12.62709,-29.78142 14.80609,-45.97186 3.74955,-27.85976 -1.41526,-56.17493 -14.75089,-80.86898 -11.42649,-21.15881 -28.4163,-38.706361 -49.40543,-51.027271 -14.70196,-8.63025 -33.19353,-14.90752 -49.65707,-16.85691 -8.21845,-0.97312 -11.38306,-1.20081 -16.68952,-1.20081 -12.47844,0 -25.3936,1.7173 -36.61696,4.86887 -4.56633,1.28225 -6.65358,1.72817 -6.65358,1.42147 0,-0.66028 11.50131,-5.59896 18.4323,-7.91486 21.50483,-7.18553 47.29895,-8.76303 69.39652,-4.24408 41.26677,8.43904 75.37249,35.06804 93.42579,72.944831 8.13369,17.06491 12.64441,37.36229 12.64441,56.89752 0,49.66691 -27.7869,96.07533 -71.72845,119.7976 -6.99495,3.77627 -16.43818,7.93324 -16.43818,7.23615 z"
                 style="fill:#2b0000;stroke-width:0.33780316" />
            </g>
          </g>
          <path
             inkscape:connector-curvature="0"
             id="path50"
             d="m 247.07749,271.64533 c -14.67522,-14.81878 -27.5034,-35.81786 -34.43213,-56.36366 -5.39494,-15.99763 -7.6141,-29.38263 -7.60123,-45.84717 0.009,-12.09522 0.90691,-20.00019 3.57734,-31.50975 1.13211,-4.87943 4.36069,-15.04811 6.11344,-19.25478 7.20497,-17.29223 16.26395,-30.840671 29.48748,-44.100881 10.93111,-10.96144 21.43622,-18.55175 35.46956,-25.62802 15.77485,-7.95442 30.02814,-12.14301 50.33268,-14.79118 6.50567,-0.84848 25.76423,-0.84342 32.7669,0.009 24.17649,2.94161 45.21942,10.06155 65.36492,22.11641 3.58348,2.14432 11.24149,7.31719 13.68103,9.24132 5.77736,4.55677 7.14087,5.66689 8.61833,7.01668 6.88984,6.29445 8.7646,8.12463 12.57797,12.2789 4.05463,4.41708 5.85156,6.66499 5.32786,6.66499 -0.12574,0 -1.36989,-0.95007 -2.76477,-2.11127 -5.60785,-4.66838 -7.54792,-6.19914 -11.44586,-9.03107 -18.07065,-13.12869 -40.16749,-22.7701 -61.9706,-27.03935 -19.98308,-3.91287 -38.688,-4.06993 -58.34404,-0.48993 -21.34487,3.88761 -42.83184,13.23131 -59.71817,25.96872 -12.00875,9.05823 -23.03662,20.67425 -31.14134,32.802191 -12.36637,18.50508 -19.98668,40.16759 -22.04303,62.66249 -0.4553,4.98063 -0.46002,19.00059 -0.008,23.81512 2.46771,26.2846 11.14115,49.65403 26.92403,72.54323 1.37718,1.99726 2.34233,3.63138 2.14479,3.63138 -0.19755,0 -1.51027,-1.16235 -2.91715,-2.58299 z"
             style="fill:#008000;stroke-width:0.33780316" />
        </g>
      </g>
    </g>
  </g>
</svg>
